<?xml version="1.0" encoding="UTF-8"?>
<svg xmlns="http://www.w3.org/2000/svg" xmlns:xlink="http://www.w3.org/1999/xlink" width="3873" height="3873" viewBox="0 0 3873 3873">
<defs>
<clipPath id="clip-0">
<path clip-rule="evenodd" d="M 1936.5 0 C 3006 0 3873 867 3873 1936.5 C 3873 3006 3006 3873 1936.5 3873 C 867 3873 0 3006 0 1936.5 C 0 867 867 0 1936.5 0 "/>
</clipPath>
<linearGradient id="linear-pattern-0" gradientUnits="userSpaceOnUse" x1="0" y1="0" x2="1" y2="0" gradientTransform="matrix(3873, 0, 0, 3873, 0, 1936.5)">
<stop offset="0" stop-color="rgb(51.371765%, 41.567993%, 100%)" stop-opacity="1"/>
<stop offset="0.0078125" stop-color="rgb(51.542664%, 41.697693%, 99.935913%)" stop-opacity="1"/>
<stop offset="0.015625" stop-color="rgb(51.885986%, 41.958618%, 99.810791%)" stop-opacity="1"/>
<stop offset="0.0234375" stop-color="rgb(52.229309%, 42.218018%, 99.685669%)" stop-opacity="1"/>
<stop offset="0.03125" stop-color="rgb(52.572632%, 42.478943%, 99.559021%)" stop-opacity="1"/>
<stop offset="0.0390625" stop-color="rgb(52.915955%, 42.739868%, 99.433899%)" stop-opacity="1"/>
<stop offset="0.046875" stop-color="rgb(53.257751%, 42.999268%, 99.308777%)" stop-opacity="1"/>
<stop offset="0.0546875" stop-color="rgb(53.601074%, 43.260193%, 99.182129%)" stop-opacity="1"/>
<stop offset="0.0625" stop-color="rgb(53.944397%, 43.521118%, 99.057007%)" stop-opacity="1"/>
<stop offset="0.0703125" stop-color="rgb(54.28772%, 43.780518%, 98.931885%)" stop-opacity="1"/>
<stop offset="0.078125" stop-color="rgb(54.631042%, 44.041443%, 98.805237%)" stop-opacity="1"/>
<stop offset="0.0859375" stop-color="rgb(54.974365%, 44.302368%, 98.680115%)" stop-opacity="1"/>
<stop offset="0.09375" stop-color="rgb(55.317688%, 44.561768%, 98.554993%)" stop-opacity="1"/>
<stop offset="0.101562" stop-color="rgb(55.661011%, 44.822693%, 98.428345%)" stop-opacity="1"/>
<stop offset="0.109375" stop-color="rgb(56.002808%, 45.083618%, 98.303223%)" stop-opacity="1"/>
<stop offset="0.117188" stop-color="rgb(56.34613%, 45.343018%, 98.178101%)" stop-opacity="1"/>
<stop offset="0.125" stop-color="rgb(56.689453%, 45.603943%, 98.051453%)" stop-opacity="1"/>
<stop offset="0.132813" stop-color="rgb(57.032776%, 45.864868%, 97.926331%)" stop-opacity="1"/>
<stop offset="0.140625" stop-color="rgb(57.376099%, 46.124268%, 97.801208%)" stop-opacity="1"/>
<stop offset="0.148438" stop-color="rgb(57.719421%, 46.385193%, 97.674561%)" stop-opacity="1"/>
<stop offset="0.15625" stop-color="rgb(58.062744%, 46.646118%, 97.549438%)" stop-opacity="1"/>
<stop offset="0.164063" stop-color="rgb(58.406067%, 46.905518%, 97.424316%)" stop-opacity="1"/>
<stop offset="0.171875" stop-color="rgb(58.747864%, 47.166443%, 97.297668%)" stop-opacity="1"/>
<stop offset="0.179688" stop-color="rgb(59.091187%, 47.427368%, 97.172546%)" stop-opacity="1"/>
<stop offset="0.1875" stop-color="rgb(59.434509%, 47.686768%, 97.047424%)" stop-opacity="1"/>
<stop offset="0.195312" stop-color="rgb(59.777832%, 47.947693%, 96.920776%)" stop-opacity="1"/>
<stop offset="0.203125" stop-color="rgb(60.121155%, 48.208618%, 96.795654%)" stop-opacity="1"/>
<stop offset="0.210938" stop-color="rgb(60.464478%, 48.468018%, 96.670532%)" stop-opacity="1"/>
<stop offset="0.21875" stop-color="rgb(60.8078%, 48.728943%, 96.54541%)" stop-opacity="1"/>
<stop offset="0.226562" stop-color="rgb(61.151123%, 48.989868%, 96.418762%)" stop-opacity="1"/>
<stop offset="0.234375" stop-color="rgb(61.494446%, 49.249268%, 96.29364%)" stop-opacity="1"/>
<stop offset="0.242188" stop-color="rgb(61.836243%, 49.510193%, 96.168518%)" stop-opacity="1"/>
<stop offset="0.25" stop-color="rgb(62.179565%, 49.771118%, 96.04187%)" stop-opacity="1"/>
<stop offset="0.257813" stop-color="rgb(62.522888%, 50.030518%, 95.916748%)" stop-opacity="1"/>
<stop offset="0.265625" stop-color="rgb(62.866211%, 50.291443%, 95.791626%)" stop-opacity="1"/>
<stop offset="0.273438" stop-color="rgb(63.209534%, 50.552368%, 95.664978%)" stop-opacity="1"/>
<stop offset="0.28125" stop-color="rgb(63.552856%, 50.811768%, 95.539856%)" stop-opacity="1"/>
<stop offset="0.289063" stop-color="rgb(63.896179%, 51.072693%, 95.414734%)" stop-opacity="1"/>
<stop offset="0.296875" stop-color="rgb(64.239502%, 51.333618%, 95.288086%)" stop-opacity="1"/>
<stop offset="0.304688" stop-color="rgb(64.581299%, 51.593018%, 95.162964%)" stop-opacity="1"/>
<stop offset="0.3125" stop-color="rgb(64.924622%, 51.853943%, 95.037842%)" stop-opacity="1"/>
<stop offset="0.320313" stop-color="rgb(65.267944%, 52.114868%, 94.911194%)" stop-opacity="1"/>
<stop offset="0.328125" stop-color="rgb(65.611267%, 52.374268%, 94.786072%)" stop-opacity="1"/>
<stop offset="0.335938" stop-color="rgb(65.95459%, 52.635193%, 94.66095%)" stop-opacity="1"/>
<stop offset="0.34375" stop-color="rgb(66.297913%, 52.896118%, 94.534302%)" stop-opacity="1"/>
<stop offset="0.351563" stop-color="rgb(66.641235%, 53.155518%, 94.40918%)" stop-opacity="1"/>
<stop offset="0.359375" stop-color="rgb(66.984558%, 53.416443%, 94.284058%)" stop-opacity="1"/>
<stop offset="0.367188" stop-color="rgb(67.326355%, 53.677368%, 94.15741%)" stop-opacity="1"/>
<stop offset="0.375" stop-color="rgb(67.669678%, 53.936768%, 94.032288%)" stop-opacity="1"/>
<stop offset="0.382812" stop-color="rgb(68.013%, 54.197693%, 93.907166%)" stop-opacity="1"/>
<stop offset="0.390625" stop-color="rgb(68.356323%, 54.458618%, 93.780518%)" stop-opacity="1"/>
<stop offset="0.398438" stop-color="rgb(68.699646%, 54.718018%, 93.655396%)" stop-opacity="1"/>
<stop offset="0.40625" stop-color="rgb(69.042969%, 54.978943%, 93.530273%)" stop-opacity="1"/>
<stop offset="0.414062" stop-color="rgb(69.386292%, 55.239868%, 93.403625%)" stop-opacity="1"/>
<stop offset="0.421875" stop-color="rgb(69.729614%, 55.499268%, 93.278503%)" stop-opacity="1"/>
<stop offset="0.429688" stop-color="rgb(70.071411%, 55.760193%, 93.153381%)" stop-opacity="1"/>
<stop offset="0.4375" stop-color="rgb(70.414734%, 56.021118%, 93.028259%)" stop-opacity="1"/>
<stop offset="0.445312" stop-color="rgb(70.758057%, 56.280518%, 92.901611%)" stop-opacity="1"/>
<stop offset="0.453125" stop-color="rgb(71.101379%, 56.541443%, 92.776489%)" stop-opacity="1"/>
<stop offset="0.460938" stop-color="rgb(71.444702%, 56.802368%, 92.651367%)" stop-opacity="1"/>
<stop offset="0.46875" stop-color="rgb(71.788025%, 57.061768%, 92.524719%)" stop-opacity="1"/>
<stop offset="0.476562" stop-color="rgb(72.131348%, 57.322693%, 92.399597%)" stop-opacity="1"/>
<stop offset="0.484375" stop-color="rgb(72.47467%, 57.583618%, 92.274475%)" stop-opacity="1"/>
<stop offset="0.492188" stop-color="rgb(72.816467%, 57.843018%, 92.147827%)" stop-opacity="1"/>
<stop offset="0.5" stop-color="rgb(73.15979%, 58.103943%, 92.022705%)" stop-opacity="1"/>
<stop offset="0.507813" stop-color="rgb(73.503113%, 58.364868%, 91.897583%)" stop-opacity="1"/>
<stop offset="0.515625" stop-color="rgb(73.846436%, 58.624268%, 91.770935%)" stop-opacity="1"/>
<stop offset="0.523438" stop-color="rgb(74.189758%, 58.885193%, 91.645813%)" stop-opacity="1"/>
<stop offset="0.53125" stop-color="rgb(74.533081%, 59.146118%, 91.520691%)" stop-opacity="1"/>
<stop offset="0.539063" stop-color="rgb(74.876404%, 59.405518%, 91.394043%)" stop-opacity="1"/>
<stop offset="0.546875" stop-color="rgb(75.219727%, 59.666443%, 91.268921%)" stop-opacity="1"/>
<stop offset="0.554688" stop-color="rgb(75.563049%, 59.927368%, 91.143799%)" stop-opacity="1"/>
<stop offset="0.5625" stop-color="rgb(75.904846%, 60.186768%, 91.017151%)" stop-opacity="1"/>
<stop offset="0.570313" stop-color="rgb(76.248169%, 60.447693%, 90.892029%)" stop-opacity="1"/>
<stop offset="0.578125" stop-color="rgb(76.591492%, 60.708618%, 90.766907%)" stop-opacity="1"/>
<stop offset="0.585938" stop-color="rgb(76.934814%, 60.968018%, 90.640259%)" stop-opacity="1"/>
<stop offset="0.59375" stop-color="rgb(77.278137%, 61.228943%, 90.515137%)" stop-opacity="1"/>
<stop offset="0.601563" stop-color="rgb(77.62146%, 61.489868%, 90.390015%)" stop-opacity="1"/>
<stop offset="0.609375" stop-color="rgb(77.964783%, 61.749268%, 90.263367%)" stop-opacity="1"/>
<stop offset="0.617188" stop-color="rgb(78.308105%, 62.010193%, 90.138245%)" stop-opacity="1"/>
<stop offset="0.625" stop-color="rgb(78.649902%, 62.271118%, 90.013123%)" stop-opacity="1"/>
<stop offset="0.632813" stop-color="rgb(78.993225%, 62.530518%, 89.886475%)" stop-opacity="1"/>
<stop offset="0.640625" stop-color="rgb(79.336548%, 62.791443%, 89.761353%)" stop-opacity="1"/>
<stop offset="0.648438" stop-color="rgb(79.679871%, 63.052368%, 89.63623%)" stop-opacity="1"/>
<stop offset="0.65625" stop-color="rgb(80.023193%, 63.311768%, 89.511108%)" stop-opacity="1"/>
<stop offset="0.664063" stop-color="rgb(80.366516%, 63.572693%, 89.38446%)" stop-opacity="1"/>
<stop offset="0.671875" stop-color="rgb(80.709839%, 63.833618%, 89.259338%)" stop-opacity="1"/>
<stop offset="0.679688" stop-color="rgb(81.053162%, 64.093018%, 89.134216%)" stop-opacity="1"/>
<stop offset="0.6875" stop-color="rgb(81.394958%, 64.353943%, 89.007568%)" stop-opacity="1"/>
<stop offset="0.695313" stop-color="rgb(81.738281%, 64.614868%, 88.882446%)" stop-opacity="1"/>
<stop offset="0.703125" stop-color="rgb(82.081604%, 64.874268%, 88.757324%)" stop-opacity="1"/>
<stop offset="0.710938" stop-color="rgb(82.424927%, 65.135193%, 88.630676%)" stop-opacity="1"/>
<stop offset="0.71875" stop-color="rgb(82.76825%, 65.396118%, 88.505554%)" stop-opacity="1"/>
<stop offset="0.726563" stop-color="rgb(83.111572%, 65.655518%, 88.380432%)" stop-opacity="1"/>
<stop offset="0.734375" stop-color="rgb(83.454895%, 65.916443%, 88.253784%)" stop-opacity="1"/>
<stop offset="0.742188" stop-color="rgb(83.798218%, 66.177368%, 88.128662%)" stop-opacity="1"/>
<stop offset="0.75" stop-color="rgb(84.140015%, 66.436768%, 88.00354%)" stop-opacity="1"/>
<stop offset="0.757812" stop-color="rgb(84.483337%, 66.697693%, 87.876892%)" stop-opacity="1"/>
<stop offset="0.765625" stop-color="rgb(84.82666%, 66.958618%, 87.75177%)" stop-opacity="1"/>
<stop offset="0.773438" stop-color="rgb(85.169983%, 67.218018%, 87.626648%)" stop-opacity="1"/>
<stop offset="0.78125" stop-color="rgb(85.513306%, 67.478943%, 87.5%)" stop-opacity="1"/>
<stop offset="0.789062" stop-color="rgb(85.856628%, 67.739868%, 87.374878%)" stop-opacity="1"/>
<stop offset="0.796875" stop-color="rgb(86.199951%, 67.999268%, 87.249756%)" stop-opacity="1"/>
<stop offset="0.804688" stop-color="rgb(86.543274%, 68.260193%, 87.123108%)" stop-opacity="1"/>
<stop offset="0.8125" stop-color="rgb(86.885071%, 68.521118%, 86.997986%)" stop-opacity="1"/>
<stop offset="0.820312" stop-color="rgb(87.228394%, 68.780518%, 86.872864%)" stop-opacity="1"/>
<stop offset="0.828125" stop-color="rgb(87.571716%, 69.041443%, 86.746216%)" stop-opacity="1"/>
<stop offset="0.835938" stop-color="rgb(87.915039%, 69.302368%, 86.621094%)" stop-opacity="1"/>
<stop offset="0.84375" stop-color="rgb(88.258362%, 69.561768%, 86.495972%)" stop-opacity="1"/>
<stop offset="0.851562" stop-color="rgb(88.601685%, 69.822693%, 86.369324%)" stop-opacity="1"/>
<stop offset="0.859375" stop-color="rgb(88.945007%, 70.083618%, 86.244202%)" stop-opacity="1"/>
<stop offset="0.867188" stop-color="rgb(89.28833%, 70.343018%, 86.11908%)" stop-opacity="1"/>
<stop offset="0.875" stop-color="rgb(89.631653%, 70.603943%, 85.993958%)" stop-opacity="1"/>
<stop offset="0.882812" stop-color="rgb(89.97345%, 70.864868%, 85.86731%)" stop-opacity="1"/>
<stop offset="0.890625" stop-color="rgb(90.316772%, 71.124268%, 85.742188%)" stop-opacity="1"/>
<stop offset="0.898438" stop-color="rgb(90.660095%, 71.385193%, 85.617065%)" stop-opacity="1"/>
<stop offset="0.90625" stop-color="rgb(91.003418%, 71.646118%, 85.490417%)" stop-opacity="1"/>
<stop offset="0.914062" stop-color="rgb(91.346741%, 71.905518%, 85.365295%)" stop-opacity="1"/>
<stop offset="0.921875" stop-color="rgb(91.690063%, 72.166443%, 85.240173%)" stop-opacity="1"/>
<stop offset="0.929688" stop-color="rgb(92.033386%, 72.427368%, 85.113525%)" stop-opacity="1"/>
<stop offset="0.9375" stop-color="rgb(92.376709%, 72.686768%, 84.988403%)" stop-opacity="1"/>
<stop offset="0.945312" stop-color="rgb(92.718506%, 72.947693%, 84.863281%)" stop-opacity="1"/>
<stop offset="0.953125" stop-color="rgb(93.061829%, 73.208618%, 84.736633%)" stop-opacity="1"/>
<stop offset="0.960938" stop-color="rgb(93.405151%, 73.468018%, 84.611511%)" stop-opacity="1"/>
<stop offset="0.96875" stop-color="rgb(93.748474%, 73.728943%, 84.486389%)" stop-opacity="1"/>
<stop offset="0.976562" stop-color="rgb(94.091797%, 73.989868%, 84.359741%)" stop-opacity="1"/>
<stop offset="0.984375" stop-color="rgb(94.43512%, 74.249268%, 84.234619%)" stop-opacity="1"/>
<stop offset="0.992188" stop-color="rgb(94.778442%, 74.510193%, 84.109497%)" stop-opacity="1"/>
<stop offset="1" stop-color="rgb(95.121765%, 74.771118%, 83.982849%)" stop-opacity="1"/>
</linearGradient>
<clipPath id="clip-1">
<path clip-rule="nonzero" d="M 221 221 L 3652 221 L 3652 3652 L 221 3652 Z M 221 221 "/>
</clipPath>
<clipPath id="clip-2">
<path clip-rule="evenodd" d="M 1936.5 221.101562 C 2883.890625 221.101562 3651.898438 989.109375 3651.898438 1936.5 C 3651.898438 2883.890625 2883.890625 3651.898438 1936.5 3651.898438 C 989.109375 3651.898438 221.101562 2883.890625 221.101562 1936.5 C 221.101562 989.109375 989.109375 221.101562 1936.5 221.101562 "/>
</clipPath>
<linearGradient id="linear-pattern-1" gradientUnits="userSpaceOnUse" x1="-0.000000000000000014" y1="0" x2="1" y2="0" gradientTransform="matrix(3430.8, 0, 0, 3430.8, 221.1, 1936.5)">
<stop offset="0" stop-color="rgb(51.371765%, 41.567993%, 100%)" stop-opacity="1"/>
<stop offset="0.0078125" stop-color="rgb(51.542664%, 41.697693%, 99.935913%)" stop-opacity="1"/>
<stop offset="0.015625" stop-color="rgb(51.885986%, 41.958618%, 99.810791%)" stop-opacity="1"/>
<stop offset="0.0234375" stop-color="rgb(52.229309%, 42.218018%, 99.685669%)" stop-opacity="1"/>
<stop offset="0.03125" stop-color="rgb(52.572632%, 42.478943%, 99.559021%)" stop-opacity="1"/>
<stop offset="0.0390625" stop-color="rgb(52.915955%, 42.739868%, 99.433899%)" stop-opacity="1"/>
<stop offset="0.046875" stop-color="rgb(53.257751%, 42.999268%, 99.308777%)" stop-opacity="1"/>
<stop offset="0.0546875" stop-color="rgb(53.601074%, 43.260193%, 99.182129%)" stop-opacity="1"/>
<stop offset="0.0625" stop-color="rgb(53.944397%, 43.521118%, 99.057007%)" stop-opacity="1"/>
<stop offset="0.0703125" stop-color="rgb(54.28772%, 43.780518%, 98.931885%)" stop-opacity="1"/>
<stop offset="0.078125" stop-color="rgb(54.631042%, 44.041443%, 98.805237%)" stop-opacity="1"/>
<stop offset="0.0859375" stop-color="rgb(54.974365%, 44.302368%, 98.680115%)" stop-opacity="1"/>
<stop offset="0.09375" stop-color="rgb(55.317688%, 44.561768%, 98.554993%)" stop-opacity="1"/>
<stop offset="0.101562" stop-color="rgb(55.661011%, 44.822693%, 98.428345%)" stop-opacity="1"/>
<stop offset="0.109375" stop-color="rgb(56.002808%, 45.083618%, 98.303223%)" stop-opacity="1"/>
<stop offset="0.117188" stop-color="rgb(56.34613%, 45.343018%, 98.178101%)" stop-opacity="1"/>
<stop offset="0.125" stop-color="rgb(56.689453%, 45.603943%, 98.051453%)" stop-opacity="1"/>
<stop offset="0.132813" stop-color="rgb(57.032776%, 45.864868%, 97.926331%)" stop-opacity="1"/>
<stop offset="0.140625" stop-color="rgb(57.376099%, 46.124268%, 97.801208%)" stop-opacity="1"/>
<stop offset="0.148438" stop-color="rgb(57.719421%, 46.385193%, 97.674561%)" stop-opacity="1"/>
<stop offset="0.15625" stop-color="rgb(58.062744%, 46.646118%, 97.549438%)" stop-opacity="1"/>
<stop offset="0.164063" stop-color="rgb(58.406067%, 46.905518%, 97.424316%)" stop-opacity="1"/>
<stop offset="0.171875" stop-color="rgb(58.747864%, 47.166443%, 97.297668%)" stop-opacity="1"/>
<stop offset="0.179688" stop-color="rgb(59.091187%, 47.427368%, 97.172546%)" stop-opacity="1"/>
<stop offset="0.1875" stop-color="rgb(59.434509%, 47.686768%, 97.047424%)" stop-opacity="1"/>
<stop offset="0.195313" stop-color="rgb(59.777832%, 47.947693%, 96.920776%)" stop-opacity="1"/>
<stop offset="0.203125" stop-color="rgb(60.121155%, 48.208618%, 96.795654%)" stop-opacity="1"/>
<stop offset="0.210938" stop-color="rgb(60.464478%, 48.468018%, 96.670532%)" stop-opacity="1"/>
<stop offset="0.21875" stop-color="rgb(60.8078%, 48.728943%, 96.54541%)" stop-opacity="1"/>
<stop offset="0.226563" stop-color="rgb(61.151123%, 48.989868%, 96.418762%)" stop-opacity="1"/>
<stop offset="0.234375" stop-color="rgb(61.494446%, 49.249268%, 96.29364%)" stop-opacity="1"/>
<stop offset="0.242188" stop-color="rgb(61.836243%, 49.510193%, 96.168518%)" stop-opacity="1"/>
<stop offset="0.25" stop-color="rgb(62.179565%, 49.771118%, 96.04187%)" stop-opacity="1"/>
<stop offset="0.257812" stop-color="rgb(62.522888%, 50.030518%, 95.916748%)" stop-opacity="1"/>
<stop offset="0.265625" stop-color="rgb(62.866211%, 50.291443%, 95.791626%)" stop-opacity="1"/>
<stop offset="0.273438" stop-color="rgb(63.209534%, 50.552368%, 95.664978%)" stop-opacity="1"/>
<stop offset="0.28125" stop-color="rgb(63.552856%, 50.811768%, 95.539856%)" stop-opacity="1"/>
<stop offset="0.289062" stop-color="rgb(63.896179%, 51.072693%, 95.414734%)" stop-opacity="1"/>
<stop offset="0.296875" stop-color="rgb(64.239502%, 51.333618%, 95.288086%)" stop-opacity="1"/>
<stop offset="0.304688" stop-color="rgb(64.581299%, 51.593018%, 95.162964%)" stop-opacity="1"/>
<stop offset="0.3125" stop-color="rgb(64.924622%, 51.853943%, 95.037842%)" stop-opacity="1"/>
<stop offset="0.320312" stop-color="rgb(65.267944%, 52.114868%, 94.911194%)" stop-opacity="1"/>
<stop offset="0.328125" stop-color="rgb(65.611267%, 52.374268%, 94.786072%)" stop-opacity="1"/>
<stop offset="0.335938" stop-color="rgb(65.95459%, 52.635193%, 94.66095%)" stop-opacity="1"/>
<stop offset="0.34375" stop-color="rgb(66.297913%, 52.896118%, 94.534302%)" stop-opacity="1"/>
<stop offset="0.351562" stop-color="rgb(66.641235%, 53.155518%, 94.40918%)" stop-opacity="1"/>
<stop offset="0.359375" stop-color="rgb(66.984558%, 53.416443%, 94.284058%)" stop-opacity="1"/>
<stop offset="0.367188" stop-color="rgb(67.326355%, 53.677368%, 94.15741%)" stop-opacity="1"/>
<stop offset="0.375" stop-color="rgb(67.669678%, 53.936768%, 94.032288%)" stop-opacity="1"/>
<stop offset="0.382812" stop-color="rgb(68.013%, 54.197693%, 93.907166%)" stop-opacity="1"/>
<stop offset="0.390625" stop-color="rgb(68.356323%, 54.458618%, 93.780518%)" stop-opacity="1"/>
<stop offset="0.398438" stop-color="rgb(68.699646%, 54.718018%, 93.655396%)" stop-opacity="1"/>
<stop offset="0.40625" stop-color="rgb(69.042969%, 54.978943%, 93.530273%)" stop-opacity="1"/>
<stop offset="0.414062" stop-color="rgb(69.386292%, 55.239868%, 93.403625%)" stop-opacity="1"/>
<stop offset="0.421875" stop-color="rgb(69.729614%, 55.499268%, 93.278503%)" stop-opacity="1"/>
<stop offset="0.429688" stop-color="rgb(70.071411%, 55.760193%, 93.153381%)" stop-opacity="1"/>
<stop offset="0.4375" stop-color="rgb(70.414734%, 56.021118%, 93.028259%)" stop-opacity="1"/>
<stop offset="0.445312" stop-color="rgb(70.758057%, 56.280518%, 92.901611%)" stop-opacity="1"/>
<stop offset="0.453125" stop-color="rgb(71.101379%, 56.541443%, 92.776489%)" stop-opacity="1"/>
<stop offset="0.460938" stop-color="rgb(71.444702%, 56.802368%, 92.651367%)" stop-opacity="1"/>
<stop offset="0.46875" stop-color="rgb(71.788025%, 57.061768%, 92.524719%)" stop-opacity="1"/>
<stop offset="0.476562" stop-color="rgb(72.131348%, 57.322693%, 92.399597%)" stop-opacity="1"/>
<stop offset="0.484375" stop-color="rgb(72.47467%, 57.583618%, 92.274475%)" stop-opacity="1"/>
<stop offset="0.492188" stop-color="rgb(72.816467%, 57.843018%, 92.147827%)" stop-opacity="1"/>
<stop offset="0.5" stop-color="rgb(73.15979%, 58.103943%, 92.022705%)" stop-opacity="1"/>
<stop offset="0.507812" stop-color="rgb(73.503113%, 58.364868%, 91.897583%)" stop-opacity="1"/>
<stop offset="0.515625" stop-color="rgb(73.846436%, 58.624268%, 91.770935%)" stop-opacity="1"/>
<stop offset="0.523438" stop-color="rgb(74.189758%, 58.885193%, 91.645813%)" stop-opacity="1"/>
<stop offset="0.53125" stop-color="rgb(74.533081%, 59.146118%, 91.520691%)" stop-opacity="1"/>
<stop offset="0.539062" stop-color="rgb(74.876404%, 59.405518%, 91.394043%)" stop-opacity="1"/>
<stop offset="0.546875" stop-color="rgb(75.219727%, 59.666443%, 91.268921%)" stop-opacity="1"/>
<stop offset="0.554688" stop-color="rgb(75.563049%, 59.927368%, 91.143799%)" stop-opacity="1"/>
<stop offset="0.5625" stop-color="rgb(75.904846%, 60.186768%, 91.017151%)" stop-opacity="1"/>
<stop offset="0.570312" stop-color="rgb(76.248169%, 60.447693%, 90.892029%)" stop-opacity="1"/>
<stop offset="0.578125" stop-color="rgb(76.591492%, 60.708618%, 90.766907%)" stop-opacity="1"/>
<stop offset="0.585938" stop-color="rgb(76.934814%, 60.968018%, 90.640259%)" stop-opacity="1"/>
<stop offset="0.59375" stop-color="rgb(77.278137%, 61.228943%, 90.515137%)" stop-opacity="1"/>
<stop offset="0.601562" stop-color="rgb(77.62146%, 61.489868%, 90.390015%)" stop-opacity="1"/>
<stop offset="0.609375" stop-color="rgb(77.964783%, 61.749268%, 90.263367%)" stop-opacity="1"/>
<stop offset="0.617188" stop-color="rgb(78.308105%, 62.010193%, 90.138245%)" stop-opacity="1"/>
<stop offset="0.625" stop-color="rgb(78.649902%, 62.271118%, 90.013123%)" stop-opacity="1"/>
<stop offset="0.632812" stop-color="rgb(78.993225%, 62.530518%, 89.886475%)" stop-opacity="1"/>
<stop offset="0.640625" stop-color="rgb(79.336548%, 62.791443%, 89.761353%)" stop-opacity="1"/>
<stop offset="0.648438" stop-color="rgb(79.679871%, 63.052368%, 89.63623%)" stop-opacity="1"/>
<stop offset="0.65625" stop-color="rgb(80.023193%, 63.311768%, 89.511108%)" stop-opacity="1"/>
<stop offset="0.664062" stop-color="rgb(80.366516%, 63.572693%, 89.38446%)" stop-opacity="1"/>
<stop offset="0.671875" stop-color="rgb(80.709839%, 63.833618%, 89.259338%)" stop-opacity="1"/>
<stop offset="0.679688" stop-color="rgb(81.053162%, 64.093018%, 89.134216%)" stop-opacity="1"/>
<stop offset="0.6875" stop-color="rgb(81.394958%, 64.353943%, 89.007568%)" stop-opacity="1"/>
<stop offset="0.695312" stop-color="rgb(81.738281%, 64.614868%, 88.882446%)" stop-opacity="1"/>
<stop offset="0.703125" stop-color="rgb(82.081604%, 64.874268%, 88.757324%)" stop-opacity="1"/>
<stop offset="0.710938" stop-color="rgb(82.424927%, 65.135193%, 88.630676%)" stop-opacity="1"/>
<stop offset="0.71875" stop-color="rgb(82.76825%, 65.396118%, 88.505554%)" stop-opacity="1"/>
<stop offset="0.726562" stop-color="rgb(83.111572%, 65.655518%, 88.380432%)" stop-opacity="1"/>
<stop offset="0.734375" stop-color="rgb(83.454895%, 65.916443%, 88.253784%)" stop-opacity="1"/>
<stop offset="0.742188" stop-color="rgb(83.798218%, 66.177368%, 88.128662%)" stop-opacity="1"/>
<stop offset="0.75" stop-color="rgb(84.140015%, 66.436768%, 88.00354%)" stop-opacity="1"/>
<stop offset="0.757812" stop-color="rgb(84.483337%, 66.697693%, 87.876892%)" stop-opacity="1"/>
<stop offset="0.765625" stop-color="rgb(84.82666%, 66.958618%, 87.75177%)" stop-opacity="1"/>
<stop offset="0.773438" stop-color="rgb(85.169983%, 67.218018%, 87.626648%)" stop-opacity="1"/>
<stop offset="0.78125" stop-color="rgb(85.513306%, 67.478943%, 87.5%)" stop-opacity="1"/>
<stop offset="0.789062" stop-color="rgb(85.856628%, 67.739868%, 87.374878%)" stop-opacity="1"/>
<stop offset="0.796875" stop-color="rgb(86.199951%, 67.999268%, 87.249756%)" stop-opacity="1"/>
<stop offset="0.804688" stop-color="rgb(86.543274%, 68.260193%, 87.123108%)" stop-opacity="1"/>
<stop offset="0.8125" stop-color="rgb(86.885071%, 68.521118%, 86.997986%)" stop-opacity="1"/>
<stop offset="0.820312" stop-color="rgb(87.228394%, 68.780518%, 86.872864%)" stop-opacity="1"/>
<stop offset="0.828125" stop-color="rgb(87.571716%, 69.041443%, 86.746216%)" stop-opacity="1"/>
<stop offset="0.835938" stop-color="rgb(87.915039%, 69.302368%, 86.621094%)" stop-opacity="1"/>
<stop offset="0.84375" stop-color="rgb(88.258362%, 69.561768%, 86.495972%)" stop-opacity="1"/>
<stop offset="0.851562" stop-color="rgb(88.601685%, 69.822693%, 86.369324%)" stop-opacity="1"/>
<stop offset="0.859375" stop-color="rgb(88.945007%, 70.083618%, 86.244202%)" stop-opacity="1"/>
<stop offset="0.867188" stop-color="rgb(89.28833%, 70.343018%, 86.11908%)" stop-opacity="1"/>
<stop offset="0.875" stop-color="rgb(89.631653%, 70.603943%, 85.993958%)" stop-opacity="1"/>
<stop offset="0.882812" stop-color="rgb(89.97345%, 70.864868%, 85.86731%)" stop-opacity="1"/>
<stop offset="0.890625" stop-color="rgb(90.316772%, 71.124268%, 85.742188%)" stop-opacity="1"/>
<stop offset="0.898438" stop-color="rgb(90.660095%, 71.385193%, 85.617065%)" stop-opacity="1"/>
<stop offset="0.90625" stop-color="rgb(91.003418%, 71.646118%, 85.490417%)" stop-opacity="1"/>
<stop offset="0.914062" stop-color="rgb(91.346741%, 71.905518%, 85.365295%)" stop-opacity="1"/>
<stop offset="0.921875" stop-color="rgb(91.690063%, 72.166443%, 85.240173%)" stop-opacity="1"/>
<stop offset="0.929688" stop-color="rgb(92.033386%, 72.427368%, 85.113525%)" stop-opacity="1"/>
<stop offset="0.9375" stop-color="rgb(92.376709%, 72.686768%, 84.988403%)" stop-opacity="1"/>
<stop offset="0.945312" stop-color="rgb(92.718506%, 72.947693%, 84.863281%)" stop-opacity="1"/>
<stop offset="0.953125" stop-color="rgb(93.061829%, 73.208618%, 84.736633%)" stop-opacity="1"/>
<stop offset="0.960938" stop-color="rgb(93.405151%, 73.468018%, 84.611511%)" stop-opacity="1"/>
<stop offset="0.96875" stop-color="rgb(93.748474%, 73.728943%, 84.486389%)" stop-opacity="1"/>
<stop offset="0.976562" stop-color="rgb(94.091797%, 73.989868%, 84.359741%)" stop-opacity="1"/>
<stop offset="0.984375" stop-color="rgb(94.43512%, 74.249268%, 84.234619%)" stop-opacity="1"/>
<stop offset="0.992188" stop-color="rgb(94.778442%, 74.510193%, 84.109497%)" stop-opacity="1"/>
<stop offset="1" stop-color="rgb(95.121765%, 74.771118%, 83.982849%)" stop-opacity="1"/>
</linearGradient>
</defs>
<g clip-path="url(#clip-0)">
<rect x="-387.3" y="-387.3" width="4647.6" height="4647.6" fill="url(#linear-pattern-0)"/>
</g>
<g clip-path="url(#clip-1)">
<g clip-path="url(#clip-2)">
<path fill-rule="nonzero" fill="url(#linear-pattern-1)" d="M 221.101562 221.101562 L 221.101562 3651.898438 L 3651.898438 3651.898438 L 3651.898438 221.101562 Z M 221.101562 221.101562 "/>
</g>
</g>
<path fill-rule="evenodd" fill="rgb(100%, 100%, 99.609375%)" fill-opacity="1" d="M 2355.5 2653.101562 L 997.398438 2653.101562 C 963.199219 2653.101562 930.699219 2639.601562 906.101562 2615 C 881.5 2590.398438 868 2558 868 2523.699219 L 868 1349.300781 C 868 1315.101562 881.5 1282.601562 906.101562 1258 C 930.699219 1233.398438 963.101562 1219.898438 997.398438 1219.898438 L 2355.5 1219.898438 C 2389.699219 1219.898438 2422.101562 1233.398438 2446.800781 1258 C 2471.398438 1282.601562 2484.898438 1315 2484.898438 1349.300781 L 2484.898438 1961.5 C 2484.898438 1973.699219 2474.898438 1983.800781 2462.601562 1983.800781 C 2450.398438 1983.800781 2440.300781 1973.800781 2440.300781 1961.5 L 2440.300781 1349.300781 C 2440.300781 1303.199219 2401.5 1264.398438 2355.398438 1264.398438 L 997.398438 1264.398438 C 951.300781 1264.398438 912.5 1303.199219 912.5 1349.300781 L 912.5 2523.699219 C 912.5 2569.800781 951.300781 2608.601562 997.398438 2608.601562 L 2355.5 2608.601562 C 2401.601562 2608.601562 2440.398438 2569.800781 2440.398438 2523.699219 L 2440.398438 2214.800781 C 2440.398438 2202.601562 2450.398438 2192.5 2462.699219 2192.5 C 2474.898438 2192.5 2485 2202.5 2485 2214.800781 L 2485 2523.699219 C 2485 2557.898438 2471.5 2590.398438 2446.898438 2615 C 2422.101562 2639.601562 2389.699219 2653.101562 2355.5 2653.101562 "/>
<path fill-rule="evenodd" fill="rgb(100%, 100%, 99.609375%)" fill-opacity="1" d="M 2462.601562 1537.101562 L 890.300781 1537.101562 C 878.101562 1537.101562 868 1527.101562 868 1514.800781 C 868 1502.601562 878 1492.5 890.300781 1492.5 L 2462.601562 1492.5 C 2474.800781 1492.5 2484.898438 1502.5 2484.898438 1514.800781 C 2484.898438 1527.101562 2474.898438 1537.101562 2462.601562 1537.101562 "/>
<path fill-rule="evenodd" fill="rgb(100%, 100%, 99.609375%)" fill-opacity="1" d="M 1092 1338.199219 C 1070.601562 1338.199219 1053 1356.300781 1053 1378.5 C 1053 1400.800781 1070.5 1418.898438 1092 1418.898438 C 1114.699219 1418.898438 1132.398438 1401.199219 1132.398438 1378.5 C 1132.398438 1355.800781 1114.699219 1338.199219 1092 1338.199219 Z M 1092 1463.398438 C 1045.898438 1463.398438 1008.5 1425.300781 1008.5 1378.5 C 1008.5 1331.699219 1045.898438 1293.601562 1092 1293.601562 C 1114.800781 1293.601562 1136.101562 1302.398438 1152.101562 1318.398438 C 1168.101562 1334.398438 1176.898438 1355.699219 1176.898438 1378.5 C 1176.898438 1401.300781 1168.101562 1422.601562 1152.101562 1438.601562 C 1136.101562 1454.601562 1114.898438 1463.398438 1092 1463.398438 "/>
<path fill-rule="evenodd" fill="rgb(100%, 100%, 99.609375%)" fill-opacity="1" d="M 1281.300781 1338.199219 C 1258.601562 1338.199219 1240.898438 1355.898438 1240.898438 1378.5 C 1240.898438 1401.199219 1258.601562 1418.898438 1281.300781 1418.898438 C 1304 1418.898438 1321.699219 1401.199219 1321.699219 1378.5 C 1321.601562 1355.800781 1304 1338.199219 1281.300781 1338.199219 Z M 1281.300781 1463.398438 C 1258.5 1463.398438 1237.199219 1454.601562 1221.199219 1438.601562 C 1205.199219 1422.601562 1196.398438 1401.300781 1196.398438 1378.5 C 1196.398438 1355.699219 1205.199219 1334.398438 1221.199219 1318.398438 C 1237.199219 1302.398438 1258.5 1293.601562 1281.300781 1293.601562 C 1304.101562 1293.601562 1325.398438 1302.398438 1341.398438 1318.398438 C 1357.398438 1334.398438 1366.199219 1355.699219 1366.199219 1378.5 C 1366.199219 1401.300781 1357.398438 1422.601562 1341.398438 1438.601562 C 1325.398438 1454.601562 1304.101562 1463.398438 1281.300781 1463.398438 "/>
<path fill-rule="evenodd" fill="rgb(100%, 100%, 99.609375%)" fill-opacity="1" d="M 1915.800781 1428.601562 L 2299.800781 1428.601562 L 2299.800781 1338.199219 L 1915.800781 1338.199219 Z M 2322.101562 1473.101562 L 1893.5 1473.101562 C 1881.300781 1473.101562 1871.199219 1463.101562 1871.199219 1450.800781 L 1871.199219 1315.800781 C 1871.199219 1303.601562 1881.199219 1293.5 1893.5 1293.5 L 2322.101562 1293.5 C 2334.300781 1293.5 2344.398438 1303.5 2344.398438 1315.800781 L 2344.398438 1450.800781 C 2344.300781 1463.101562 2334.300781 1473.101562 2322.101562 1473.101562 "/>
<path fill-rule="evenodd" fill="rgb(100%, 100%, 99.609375%)" fill-opacity="1" d="M 1448.300781 1417.5 L 1491.398438 1417.5 L 1491.398438 1339.601562 L 1448.300781 1339.601562 Z M 1513.601562 1462 L 1426 1462 C 1413.800781 1462 1403.699219 1452 1403.699219 1439.699219 L 1403.699219 1317.300781 C 1403.699219 1305.101562 1413.699219 1295 1426 1295 L 1513.699219 1295 C 1525.898438 1295 1536 1305 1536 1317.300781 L 1536 1439.699219 C 1535.898438 1452 1525.898438 1462 1513.601562 1462 "/>
<path fill-rule="evenodd" fill="rgb(100%, 100%, 99.609375%)" fill-opacity="1" d="M 2348.5 2351.101562 C 2342.800781 2351.101562 2337.101562 2348.898438 2332.800781 2344.601562 C 2324 2336 2324 2321.800781 2332.800781 2313.199219 L 2940.898438 1703.699219 C 2967.199219 1677.398438 2967.199219 1634.800781 2940.898438 1608.5 C 2914.601562 1582.199219 2872 1582.199219 2845.699219 1608.5 L 2237.601562 2218 C 2229 2226.800781 2214.800781 2226.800781 2206.199219 2218 C 2197.601562 2209.199219 2197.398438 2195.199219 2206.199219 2186.601562 L 2814.300781 1577.101562 C 2835.300781 1556.101562 2863.398438 1544.5 2893.300781 1544.5 C 2923.199219 1544.5 2951.300781 1556 2972.300781 1577.101562 C 3015.898438 1620.699219 3015.898438 1691.601562 2972.300781 1735.199219 L 2364.199219 2344.699219 C 2359.898438 2348.898438 2354.199219 2351.101562 2348.5 2351.101562 "/>
<path fill-rule="evenodd" fill="rgb(100%, 100%, 99.609375%)" fill-opacity="1" d="M 2744.5 1709.699219 L 2839.699219 1804.898438 L 2940.898438 1703.699219 C 2953.601562 1691 2960.5 1674.199219 2960.5 1656.101562 C 2960.5 1638 2953.5 1621.199219 2940.898438 1608.5 C 2928.199219 1595.800781 2911.398438 1588.898438 2893.300781 1588.898438 C 2875.199219 1588.898438 2858.398438 1595.898438 2845.699219 1608.5 Z M 2839.699219 1858.601562 C 2834 1858.601562 2828.300781 1856.398438 2824 1852.101562 L 2697.398438 1725.5 C 2688.800781 1716.898438 2688.800781 1702.699219 2697.398438 1694.101562 L 2814.300781 1577.199219 C 2835.300781 1556.199219 2863.398438 1544.601562 2893.300781 1544.601562 C 2923.199219 1544.601562 2951.300781 1556.101562 2972.300781 1577.199219 C 2993.300781 1598.199219 3004.898438 1626.300781 3004.898438 1656.199219 C 3004.898438 1686.101562 2993.398438 1714.199219 2972.300781 1735.199219 L 2855.398438 1852 C 2851.101562 1856.300781 2845.398438 1858.601562 2839.699219 1858.601562 "/>
<path fill-rule="evenodd" fill="rgb(100%, 100%, 99.609375%)" fill-opacity="1" d="M 2230 2241.898438 L 2177.101562 2373.800781 L 2309 2320.898438 Z M 2137 2436 C 2131.199219 2436 2125.398438 2433.800781 2121.300781 2429.5 C 2115 2423.199219 2113.101562 2413.800781 2116.398438 2405.398438 L 2201.300781 2193.898438 C 2204.101562 2186.898438 2210.199219 2181.898438 2217.398438 2180.398438 C 2224.800781 2178.898438 2232.300781 2181.199219 2237.601562 2186.5 L 2364.199219 2313.101562 C 2369.5 2318.398438 2371.699219 2326 2370.300781 2333.300781 C 2368.898438 2340.5 2363.800781 2346.699219 2356.800781 2349.398438 L 2145.300781 2434.300781 C 2142.601562 2435.5 2139.800781 2436 2137 2436 "/>
<path fill-rule="evenodd" fill="rgb(100%, 100%, 99.609375%)" fill-opacity="1" d="M 1196.398438 1837.699219 L 1298 1837.699219 C 1315.398438 1837.699219 1330 1823.601562 1330 1807.101562 L 1330 1779.300781 C 1330 1762.199219 1315.101562 1747.300781 1298 1747.300781 L 1196.398438 1747.300781 Z M 1298 1882.199219 L 1174.199219 1882.199219 C 1162 1882.199219 1151.898438 1872.199219 1151.898438 1859.898438 L 1151.898438 1724.898438 C 1151.898438 1712.699219 1161.898438 1702.601562 1174.199219 1702.601562 L 1298 1702.601562 C 1339.5 1702.601562 1374.5 1737.699219 1374.5 1779.101562 L 1374.5 1806.898438 C 1374.5 1827.101562 1366.300781 1846 1351.5 1860.300781 C 1337.101562 1874.601562 1318 1882.199219 1298 1882.199219 "/>
<path fill-rule="evenodd" fill="rgb(100%, 100%, 99.609375%)" fill-opacity="1" d="M 1196.398438 1972.699219 L 1345.300781 1972.699219 C 1362.101562 1972.699219 1375.898438 1958.898438 1375.898438 1942.101562 L 1375.898438 1914.300781 C 1375.898438 1896.898438 1361.800781 1882.300781 1345.300781 1882.300781 L 1196.398438 1882.300781 Z M 1345.300781 2017.199219 L 1174.199219 2017.199219 C 1162 2017.199219 1151.898438 2007.199219 1151.898438 1994.898438 L 1151.898438 1859.898438 C 1151.898438 1847.699219 1161.898438 1837.601562 1174.199219 1837.601562 L 1345.300781 1837.601562 C 1365.5 1837.601562 1384.398438 1845.800781 1398.699219 1860.601562 C 1412.800781 1875.101562 1420.398438 1894.101562 1420.398438 1914.199219 L 1420.398438 1942 C 1420.398438 1983.5 1386.699219 2017.199219 1345.300781 2017.199219 "/>
<path fill-rule="evenodd" fill="rgb(100%, 100%, 99.609375%)" fill-opacity="1" d="M 1630.5 2017.199219 L 1516.398438 2017.199219 C 1504.199219 2017.199219 1494.101562 2007.199219 1494.101562 1994.898438 L 1494.101562 1725 C 1494.101562 1712.800781 1504.101562 1702.699219 1516.398438 1702.699219 C 1528.601562 1702.699219 1538.699219 1712.699219 1538.699219 1725 L 1538.699219 1972.699219 L 1630.5 1972.699219 C 1642.699219 1972.699219 1652.800781 1982.699219 1652.800781 1995 C 1652.800781 2007.199219 1642.800781 2017.199219 1630.5 2017.199219 "/>
<path fill-rule="evenodd" fill="rgb(100%, 100%, 99.609375%)" fill-opacity="1" d="M 1814.199219 1747.300781 C 1790.398438 1747.300781 1771.101562 1766.601562 1771.101562 1790.398438 L 1771.101562 1930.898438 C 1771.101562 1953.601562 1790.898438 1972.601562 1814.199219 1972.601562 C 1837.5 1972.601562 1857.300781 1953.5 1857.300781 1930.898438 L 1857.300781 1790.398438 C 1857.300781 1766.601562 1838 1747.300781 1814.199219 1747.300781 Z M 1814.199219 2017.199219 C 1765.898438 2017.199219 1726.5 1978.5 1726.5 1930.898438 L 1726.5 1790.398438 C 1726.5 1742.101562 1765.898438 1702.699219 1814.199219 1702.699219 C 1862.5 1702.699219 1901.898438 1742.101562 1901.898438 1790.398438 L 1901.898438 1930.898438 C 1901.898438 1978.5 1862.5 2017.199219 1814.199219 2017.199219 "/>
<path fill-rule="evenodd" fill="rgb(100%, 100%, 99.609375%)" fill-opacity="1" d="M 2086.898438 2025.5 C 2025.800781 2025.5 1974.199219 1973.898438 1974.199219 1912.800781 L 1974.199219 1798.699219 C 1974.199219 1737.601562 2025.800781 1686 2086.898438 1686 C 2117 1686 2145.300781 1698 2166.800781 1719.5 C 2187.898438 1740.898438 2199.601562 1769 2199.601562 1798.699219 C 2199.601562 1810.898438 2189.601562 1821 2177.300781 1821 C 2165.101562 1821 2155 1811 2155 1798.699219 C 2155 1761.699219 2123.800781 1730.5 2086.800781 1730.5 C 2050.5 1730.5 2018.601562 1762.398438 2018.601562 1798.699219 L 2018.601562 1912.800781 C 2018.601562 1949.101562 2050.5 1981 2086.800781 1981 C 2123.800781 1981 2155 1949.800781 2155 1912.800781 C 2155 1900.601562 2165 1890.5 2177.300781 1890.5 C 2189.5 1890.5 2199.601562 1900.5 2199.601562 1912.800781 C 2199.601562 1942.398438 2187.898438 1970.5 2166.800781 1992 C 2145.398438 2013.601562 2117 2025.5 2086.898438 2025.5 "/>
<path fill-rule="evenodd" fill="rgb(100%, 100%, 99.609375%)" fill-opacity="1" d="M 2199.5 1914.800781 L 2155.101562 1910.800781 C 2155.101562 1910.800781 2155.101562 1910.898438 2155.101562 1911.398438 C 2155.101562 1911 2155.398438 1901.5 2147.300781 1893.5 C 2139.601562 1886 2122.398438 1877.398438 2084 1879.398438 C 2071.800781 1880.101562 2061.199219 1870.601562 2060.5 1858.398438 C 2059.800781 1846.199219 2069.300781 1835.601562 2081.5 1834.898438 C 2126.300781 1832.398438 2159.398438 1841.898438 2179.898438 1863 C 2201.601562 1885.398438 2199.800781 1911.898438 2199.5 1914.800781 "/>
<path fill-rule="evenodd" fill="rgb(100%, 100%, 99.609375%)" fill-opacity="1" d="M 2014.601562 2153.601562 L 1204.800781 2153.601562 C 1192.601562 2153.601562 1182.5 2143.601562 1182.5 2131.300781 C 1182.5 2119.101562 1192.5 2109 1204.800781 2109 L 2014.601562 2109 C 2026.800781 2109 2036.898438 2119 2036.898438 2131.300781 C 2036.800781 2143.5 2026.800781 2153.601562 2014.601562 2153.601562 "/>
<path fill-rule="evenodd" fill="rgb(100%, 100%, 99.609375%)" fill-opacity="1" d="M 1712.601562 2315 L 1204.699219 2315 C 1192.5 2315 1182.398438 2305 1182.398438 2292.699219 C 1182.398438 2280.5 1192.398438 2270.398438 1204.699219 2270.398438 L 1712.601562 2270.398438 C 1724.800781 2270.398438 1734.898438 2280.398438 1734.898438 2292.699219 C 1734.898438 2304.898438 1724.898438 2315 1712.601562 2315 "/>
<path fill-rule="evenodd" fill="rgb(100%, 100%, 99.609375%)" fill-opacity="1" d="M 1712.601562 2477.800781 L 1204.699219 2477.800781 C 1192.5 2477.800781 1182.398438 2467.800781 1182.398438 2455.5 C 1182.398438 2443.300781 1192.398438 2433.199219 1204.699219 2433.199219 L 1712.601562 2433.199219 C 1724.800781 2433.199219 1734.898438 2443.199219 1734.898438 2455.5 C 1734.898438 2467.699219 1724.898438 2477.800781 1712.601562 2477.800781 "/>
</svg>
